<svg aria-hidden="true" xmlns="http://www.w3.org/2000/svg" xmlns:xlink="http://www.w3.org/1999/xlink"> 
	<symbol id="star" width="20" height="20" viewBox="0 0 20 20" fill="currentColor" xmlns="http://www.w3.org/2000/svg">
		<g clip-path="url(#clip0_1_396)">
		<path fill-rule="evenodd" clip-rule="evenodd" d="M9.8125 14.0551L4.04485 17.8345L5.85693 11.1812L0.480255 6.86377L7.36782 6.53118L9.8125 0.0834961L12.2572 6.53118L19.1447 6.86377L13.7681 11.1812L15.5801 17.8345L9.8125 14.0551Z" fill="currentColor"/>
		</g>
		<defs>
		<clipPath id="clip0_1_396">
		<rect width="19.625" height="17.9896" fill="currentColor" transform="translate(0 0.0834961)"/>
		</clipPath>
		</defs>
	</symbol>
	<symbol id="in" width="20" height="20" viewBox="0 0 20 20" fill="currentColor" xmlns="http://www.w3.org/2000/svg">
		<path d="M6.20499 4.49977C6.20479 4.8976 6.04656 5.27905 5.76512 5.56021C5.48367 5.84138 5.10206 5.99922 4.70424 5.99902C4.30641 5.99883 3.92496 5.8406 3.6438 5.55915C3.36263 5.27771 3.20479 4.8961 3.20499 4.49827C3.20519 4.10045 3.36341 3.719 3.64486 3.43783C3.9263 3.15667 4.30791 2.99882 4.70574 2.99902C5.10356 2.99922 5.48501 3.15745 5.76618 3.43889C6.04734 3.72034 6.20519 4.10195 6.20499 4.49977ZM6.24999 7.10977H3.24999V16.4998H6.24999V7.10977ZM10.99 7.10977H8.00499V16.4998H10.96V11.5723C10.96 8.82727 14.5375 8.57227 14.5375 11.5723V16.4998H17.5V10.5523C17.5 5.92477 12.205 6.09727 10.96 8.36977L10.99 7.10977Z" fill="currentColor"/>
	</symbol>
	<symbol id="t" width="20" height="20" viewBox="0 0 20 20" fill="currentColor" xmlns="http://www.w3.org/2000/svg">
		<path d="M15.359 6.65097C15.9874 6.24332 16.4035 5.68692 16.6072 4.9793C15.9959 5.32202 15.387 5.55707 14.7788 5.68692C14.232 5.0656 13.5399 4.75 12.71 4.75C11.8988 4.75 11.2137 5.0508 10.6545 5.63597C10.0984 6.22524 9.81762 6.94108 9.81762 7.77692C9.81762 8.03087 9.84795 8.25771 9.90862 8.45002C7.5163 8.36373 5.53619 7.31503 3.97606 5.29654C3.71163 5.79048 3.57941 6.29346 3.57941 6.81369C3.57941 7.88294 4.00639 8.73028 4.85879 9.35242C4.3727 9.30887 3.94417 9.17901 3.57941 8.96615C3.57941 9.72966 3.79173 10.3674 4.21715 10.9288C4.64413 11.4843 5.19243 11.8386 5.86206 11.9898C5.61941 12.0555 5.36354 12.0868 5.10066 12.0868C4.85801 12.0868 4.68613 12.0654 4.58425 12.0185C4.76312 12.6407 5.10066 13.1453 5.5883 13.5316C6.07438 13.9195 6.63358 14.1242 7.26199 14.1422C6.22604 15.0011 5.04155 15.426 3.70152 15.426C3.37331 15.426 3.14077 15.421 3 15.3947C4.31982 16.3004 5.78896 16.75 7.41442 16.75C9.078 16.75 10.5479 16.3046 11.8273 15.4137C13.1067 14.5277 14.0508 13.4346 14.6575 12.1476C15.2672 10.8622 15.569 9.52419 15.569 8.12703V7.7424C16.1585 7.27394 16.6352 6.7463 17 6.1636C16.4711 6.40441 15.9244 6.56796 15.359 6.65097Z" fill="currentColor"/>
	</symbol>
	<symbol id="f" width="20" height="20" viewBox="0 0 20 20" fill="currentColor" xmlns="http://www.w3.org/2000/svg">
		<path d="M12.5625 11.2167L13 8.88333L10.8125 8.8838V7.01667C10.8125 6.29613 11.1555 6.08333 12.125 6.08333H13V3.75C13 3.75 12.1031 3.75 11.25 3.75C9.4685 3.75 8.1875 4.88633 8.1875 7.01667V8.88333H6V11.2167H8.1875V17.75H10.8125V11.2167H12.5625Z" fill="currentColor"/>
	</symbol>
	<symbol id="y" width="20" height="20" viewBox="0 0 20 20" fill="currentColor" xmlns="http://www.w3.org/2000/svg">
		<path d="M17.6657 5.62759C17.4817 4.88853 16.9395 4.30647 16.2511 4.10894C15.0033 3.75 10 3.75 10 3.75C10 3.75 4.99669 3.75 3.7489 4.10894C3.06052 4.3065 2.51835 4.88853 2.33434 5.62759C2 6.96719 2 9.76213 2 9.76213C2 9.76213 2 12.5571 2.33434 13.8967C2.51835 14.6357 3.06052 15.1935 3.7489 15.3911C4.99669 15.75 10 15.75 10 15.75C10 15.75 15.0033 15.75 16.2511 15.3911C16.9395 15.1935 17.4817 14.6357 17.6657 13.8967C18 12.5571 18 9.76213 18 9.76213C18 9.76213 18 6.96719 17.6657 5.62759ZM8.36363 12.2997V7.22453L12.5454 9.76219L8.36363 12.2997Z" fill="currentColor"/>
	</symbol>
	<symbol id="i" width="20" height="20" viewBox="0 0 20 20" fill="currentColor" xmlns="http://www.w3.org/2000/svg">
		<path fill-rule="evenodd" clip-rule="evenodd" d="M6.8 2.75H13.2C15.851 2.75 18 4.89903 18 7.55V13.95C18 16.601 15.851 18.75 13.2 18.75H6.8C4.14903 18.75 2 16.601 2 13.95V7.55C2 4.89903 4.14903 2.75 6.8 2.75ZM6.8 4.35C5.03269 4.35 3.6 5.78269 3.6 7.55V13.95C3.6 15.7173 5.03269 17.15 6.8 17.15H13.2C14.9673 17.15 16.4 15.7173 16.4 13.95V7.55C16.4 5.78269 14.9673 4.35 13.2 4.35H6.8ZM10 14.75C7.79086 14.75 6 12.9591 6 10.75C6 8.54086 7.79086 6.75 10 6.75C12.2091 6.75 14 8.54086 14 10.75C14 12.9591 12.2091 14.75 10 14.75ZM10 13.15C11.3255 13.15 12.4 12.0755 12.4 10.75C12.4 9.42452 11.3255 8.35 10 8.35C8.67452 8.35 7.6 9.42452 7.6 10.75C7.6 12.0755 8.67452 13.15 10 13.15ZM14 7.55C13.5582 7.55 13.2 7.19183 13.2 6.75C13.2 6.30817 13.5582 5.95 14 5.95C14.4418 5.95 14.8 6.30817 14.8 6.75C14.8 7.19183 14.4418 7.55 14 7.55Z" fill="currentColor"/>
	</symbol>
</svg>
