<svg width="52" height="52" fill="none" xmlns="http://www.w3.org/2000/svg"><path d="M26 51.879c14.292 0 25.88-11.587 25.88-25.879C51.879 11.708 40.292.121 26 .121S.121 11.708.121 26.001c0 14.291 11.587 25.878 25.88 25.878z" fill="#FF6D35"/><path d="M35.55 37.673h-19.1a4.257 4.257 0 01-4.245-4.245V18.572a4.257 4.257 0 014.245-4.245h19.1a4.257 4.257 0 014.245 4.245v14.856a4.257 4.257 0 01-4.245 4.245z" stroke="#fff" stroke-width="2" stroke-miterlimit="10" stroke-linecap="round" stroke-linejoin="round"/><path d="M12.205 19.633L26 28.123l13.795-8.49" stroke="#fff" stroke-width="2" stroke-miterlimit="10" stroke-linecap="round" stroke-linejoin="round"/></svg>