<svg width="53" height="52" fill="none" xmlns="http://www.w3.org/2000/svg"><path d="M26.516 51.803c14.216 0 25.74-11.524 25.74-25.74S40.732.323 26.516.323.776 11.846.776 26.062s11.524 25.74 25.74 25.74z" fill="#1B76FF"/><path clip-rule="evenodd" d="M13.106 20.969h4.646v18.16h-4.646c-.7 0-1.267-.54-1.267-1.205V22.175c0-.666.567-1.206 1.267-1.206zM39.78 35.73c-.294 2.263-1.807 3.4-4.495 3.4H21.217c-1.911 0-3.465-1.463-3.465-3.262V20.99c4.46-.434 6.691-1.992 6.691-6.18v-2.007c0-2.115 1.8-3.83 4.022-3.83.846 0 1.671.255 2.357.727.945.653 1.547 1.888 1.547 3.667v5.81c0 .494.837.899 1.673.899h4.488c1.89 0 3.423 1.423 3.465 3.192.029 1.18-.71 4.831-2.215 12.462z" stroke="#fff" stroke-width="1.608" stroke-linecap="round" stroke-linejoin="round"/></svg>