<svg width="52" height="53" fill="none" xmlns="http://www.w3.org/2000/svg"><path d="M26.14 52.397c14.217 0 25.741-11.525 25.741-25.74C51.881 12.44 40.357.915 26.141.915S.4 12.44.4 26.656s11.524 25.74 25.74 25.74z" fill="#5CC97B"/><path fill-rule="evenodd" clip-rule="evenodd" d="M28.898 33.03a10.841 10.841 0 01-6.449 1.79c-6.009-.247-10.68-5.32-10.431-11.33.248-6.01 5.32-10.679 11.33-10.43 6.008.247 10.68 5.32 10.431 11.329a10.84 10.84 0 01-1.89 5.699l7.336 7.123a2.492 2.492 0 01-.057 3.439l-.043.04-.045.038a2.49 2.49 0 01-3.43-.223l-6.752-7.476zm-6.345-.721a8.377 8.377 0 11.692-16.74 8.377 8.377 0 01-.692 16.74z" fill="#fff"/></svg>